<svg width="61" height="61" viewBox="0 0 61 61" fill="none" xmlns="http://www.w3.org/2000/svg">
<path d="M44.3994 19.0871C43.3053 19.0856 42.2284 19.3596 41.2682 19.884C40.9212 18.8092 40.3027 17.8422 39.4726 17.0764C38.6424 16.3107 37.6287 15.7721 36.5295 15.5128C35.4302 15.2536 34.2827 15.2824 33.1978 15.5965C32.113 15.9106 31.1276 16.4994 30.3369 17.3059C29.4245 16.3747 28.2554 15.7363 26.9787 15.4722C25.702 15.2081 24.3756 15.3303 23.1686 15.8232C21.9616 16.316 20.9288 17.1572 20.2018 18.2394C19.4749 19.3217 19.0867 20.5959 19.0869 21.8996V26.5871H16.2744C14.5339 26.5871 12.8647 27.2785 11.634 28.5093C10.4033 29.74 9.71191 31.4092 9.71191 33.1496V35.9621C9.71191 41.4322 11.8849 46.6783 15.7528 50.5462C19.6208 54.4142 24.8668 56.5871 30.3369 56.5871C35.807 56.5871 41.0531 54.4142 44.921 50.5462C48.7889 46.6783 50.9619 41.4322 50.9619 35.9621V25.6496C50.9619 23.9092 50.2705 22.24 49.0398 21.0093C47.8091 19.7785 46.1399 19.0871 44.3994 19.0871ZM47.2119 35.9621C47.2119 40.4377 45.434 44.7299 42.2693 47.8946C39.1047 51.0592 34.8124 52.8371 30.3369 52.8371C25.8614 52.8371 21.5692 51.0592 18.4045 47.8946C15.2398 44.7299 13.4619 40.4377 13.4619 35.9621V33.1496C13.4619 32.4037 13.7582 31.6884 14.2857 31.1609C14.8131 30.6335 15.5285 30.3371 16.2744 30.3371H19.0869V35.9621C19.0869 36.4594 19.2845 36.9363 19.6361 37.288C19.9877 37.6396 20.4646 37.8371 20.9619 37.8371C21.4592 37.8371 21.9361 37.6396 22.2877 37.288C22.6394 36.9363 22.8369 36.4594 22.8369 35.9621V21.8996C22.8369 21.1537 23.1332 20.4383 23.6607 19.9109C24.1881 19.3835 24.9035 19.0871 25.6494 19.0871C26.3953 19.0871 27.1107 19.3835 27.6382 19.9109C28.1656 20.4383 28.4619 21.1537 28.4619 21.8996V28.4621C28.4619 28.9594 28.6595 29.4363 29.0111 29.788C29.3627 30.1396 29.8396 30.3371 30.3369 30.3371C30.8342 30.3371 31.3111 30.1396 31.6627 29.788C32.0144 29.4363 32.2119 28.9594 32.2119 28.4621V21.8996C32.2119 21.1537 32.5082 20.4383 33.0357 19.9109C33.5631 19.3835 34.2785 19.0871 35.0244 19.0871C35.7703 19.0871 36.4857 19.3835 37.0132 19.9109C37.5406 20.4383 37.8369 21.1537 37.8369 21.8996V28.4621C37.8369 28.9594 38.0345 29.4363 38.3861 29.788C38.7377 30.1396 39.2146 30.3371 39.7119 30.3371C40.2092 30.3371 40.6861 30.1396 41.0377 29.788C41.3894 29.4363 41.5869 28.9594 41.5869 28.4621V25.6496C41.5869 24.9037 41.8832 24.1883 42.4107 23.6609C42.9381 23.1335 43.6535 22.8371 44.3994 22.8371C45.1453 22.8371 45.8607 23.1335 46.3881 23.6609C46.9156 24.1883 47.2119 24.9037 47.2119 25.6496V35.9621Z" fill="#F1F1F1" fill-opacity="0.6"/>
</svg>
