<svg width="61" height="61" viewBox="0 0 61 61" fill="none" xmlns="http://www.w3.org/2000/svg">
<path d="M24.658 43.9168C24.5666 44.2801 22.2815 52.8371 9.71192 52.8371C9.21464 52.8371 8.73773 52.6396 8.3861 52.288C8.03446 51.9363 7.83692 51.4594 7.83692 50.9621C7.83692 38.3926 16.394 36.1075 16.7572 36.0161C17.2399 35.8955 17.7507 35.9715 18.1773 36.2276C18.6039 36.4836 18.9113 36.8986 19.0318 37.3813C19.1524 37.864 19.0763 38.3748 18.8203 38.8013C18.5643 39.2279 18.1493 39.5353 17.6666 39.6559C17.4557 39.7145 12.4119 41.1887 11.676 48.9981C19.4854 48.2621 20.9619 43.2278 21.0229 42.9934C21.1472 42.5113 21.4579 42.0984 21.8867 41.8455C22.3154 41.5925 22.8271 41.5202 23.3092 41.6446C23.7912 41.7689 24.2042 42.0796 24.4571 42.5084C24.7101 42.9372 24.7823 43.4488 24.658 43.9309V43.9168ZM46.4549 28.12L45.3369 29.2379V42.909C45.3397 43.4034 45.2442 43.8933 45.0559 44.3504C44.8676 44.8075 44.5902 45.2226 44.24 45.5715L36.1963 53.6106C35.8494 53.9599 35.4368 54.2371 34.9822 54.4262C34.5277 54.6153 34.0402 54.7125 33.5479 54.7121C33.1415 54.712 32.7379 54.6464 32.3525 54.5176C31.6909 54.2988 31.1036 53.8992 30.6571 53.3641C30.2107 52.829 29.9228 52.1797 29.826 51.4895L28.5674 42.4684L18.2057 32.1067L9.18926 30.8481C8.49819 30.7512 7.84787 30.4633 7.31147 30.017C6.77506 29.5706 6.37384 28.9834 6.15294 28.3215C5.93205 27.6595 5.90024 26.9491 6.0611 26.27C6.22196 25.591 6.56911 24.9703 7.06348 24.4778L15.1025 16.434C15.4515 16.0838 15.8666 15.8065 16.3236 15.6182C16.7807 15.4299 17.2707 15.3344 17.765 15.3371H31.4361L32.5541 14.2192C38.8072 7.96839 46.3424 7.69886 49.2908 7.87465C50.2051 7.9302 51.0674 8.31844 51.715 8.96609C52.3627 9.61374 52.7509 10.476 52.8064 11.3903C52.9775 14.3317 52.708 21.8668 46.4572 28.12H46.4549ZM9.71192 27.1356L18.419 28.3496L27.6861 19.0871H17.765L9.71192 27.1356ZM21.74 30.3371L30.3369 38.934L43.8018 25.4692C45.6164 23.6668 47.0241 21.4969 47.9305 19.1053C48.8368 16.7137 49.2208 14.1558 49.0564 11.6036C46.5055 11.4454 43.9501 11.8333 41.5611 12.7415C39.172 13.6497 37.0042 15.0572 35.2025 16.87L21.74 30.3371ZM41.5869 32.9879L32.3221 42.2528L33.5408 50.9621L41.5869 42.909V32.9879Z" fill="#F1F1F1" fill-opacity="0.6"/>
</svg>
