<svg width="79" height="79" viewBox="0 0 79 79" fill="none" xmlns="http://www.w3.org/2000/svg">
<g clip-path="url(#clip0_117_4195)">
<path d="M47.1129 38.8516C47.064 38.6099 47.0634 38.361 47.1109 38.1191C47.1584 37.8772 47.2531 37.647 47.3896 37.4418C47.5262 37.2365 47.7019 37.0602 47.9067 36.9229C48.1114 36.7856 48.3413 36.6901 48.583 36.6418L67.4203 32.849C67.8976 32.7755 68.3849 32.8892 68.7806 33.1662C69.1763 33.4432 69.4498 33.8622 69.5442 34.3358C69.6385 34.8095 69.5465 35.3014 69.2871 35.7088C69.0278 36.1163 68.6213 36.408 68.1522 36.5231L49.3128 40.315C48.943 40.3908 48.5588 40.3521 48.2116 40.204C47.9327 40.0844 47.687 39.8988 47.4956 39.6632C47.3042 39.4276 47.1729 39.1491 47.1129 38.8516ZM56.7677 64.6151C56.3487 64.8829 55.8406 64.9733 55.355 64.8665C54.8693 64.7597 54.446 64.4644 54.1781 64.0455L40.1747 42.1624L28.3404 44.5433C28.2858 46.6173 27.469 48.5985 26.0461 50.1084C24.6231 51.6182 22.6937 52.5509 20.6265 52.7281C18.5594 52.9053 16.4994 52.3147 14.8402 51.0691C13.181 49.8235 12.0388 48.0102 11.6321 45.9758C11.2253 43.9413 11.5823 41.8283 12.635 40.0404C13.6877 38.2526 15.3622 36.9153 17.3386 36.284C19.3149 35.6527 21.4546 35.7718 23.3488 36.6184C25.2429 37.465 26.7587 38.9798 27.6066 40.8734L38.0059 38.772L32.2827 29.8271C30.3392 30.5279 28.2056 30.4883 26.2894 29.7158C24.3732 28.9434 22.8087 27.4922 21.8946 25.6394C20.9804 23.7866 20.7808 21.662 21.3337 19.6714C21.8866 17.6807 23.1534 15.9634 24.8921 14.8475C26.6309 13.7316 28.7197 13.2951 30.7598 13.6216C32.7999 13.948 34.6482 15.0144 35.9519 16.6172C37.2556 18.22 37.9233 20.2468 37.8274 22.3106C37.7316 24.3744 36.879 26.3306 35.4323 27.8056L57.3209 62.016C57.4558 62.2228 57.5485 62.4543 57.5936 62.697C57.6388 62.9397 57.6356 63.189 57.5842 63.4305C57.5328 63.672 57.4342 63.9009 57.2941 64.1042C57.154 64.3075 56.9751 64.4811 56.7677 64.6151ZM24.2193 46.16C24.6433 45.1618 24.708 44.0475 24.4025 43.0069C24.097 41.9664 23.4401 41.0639 22.5438 40.4534C21.6475 39.8429 20.5672 39.562 19.487 39.6587C18.4068 39.7554 17.3936 40.2236 16.62 40.9836C15.8463 41.7436 15.3601 42.7483 15.2442 43.8266C15.1283 44.9048 15.3899 45.99 15.9843 46.897C16.5788 47.804 17.4694 48.4769 18.5043 48.8009C19.5393 49.1249 20.6546 49.0801 21.6602 48.674C22.2319 48.4452 22.7525 48.1051 23.1918 47.6736C23.6311 47.242 23.9804 46.7276 24.2193 46.16ZM31.1852 26.2345C32.0449 25.8873 32.7823 25.293 33.3042 24.5267C33.8261 23.7603 34.109 22.8565 34.1172 21.9293C34.1253 21.0022 33.8584 20.0935 33.35 19.3181C32.8417 18.5427 32.1149 17.9355 31.2614 17.5732C30.4079 17.2109 29.4662 17.1099 28.5553 17.2829C27.6445 17.4558 26.8053 17.895 26.1441 18.545C25.4828 19.1949 25.0292 20.0263 24.8405 20.934C24.6518 21.8418 24.7365 22.7851 25.0839 23.6447C25.3107 24.2183 25.6493 24.741 26.08 25.1825C26.5106 25.624 27.0248 25.9755 27.5925 26.2165C28.1603 26.4575 28.7703 26.5832 29.387 26.5863C30.0038 26.5894 30.615 26.4698 31.1852 26.2345Z" fill="#F1F1F1" fill-opacity="0.6"/>
</g>
<defs>
<clipPath id="clip0_117_4195">
<rect width="60" height="60" fill="white" transform="translate(23.4438) rotate(23)"/>
</clipPath>
</defs>
</svg>
