<svg width="75" height="75" viewBox="0 0 75 75" fill="none" xmlns="http://www.w3.org/2000/svg">
<g clip-path="url(#clip0_117_4199)">
<path d="M52.4063 13.888L43.3508 16.3144L42.8655 14.5033C42.4794 13.0623 41.5366 11.8337 40.2447 11.0878C38.9527 10.3418 37.4173 10.1397 35.9763 10.5258L25.1096 13.4375C23.6686 13.8237 22.44 14.7664 21.6941 16.0584C20.9482 17.3504 20.746 18.8857 21.1322 20.3267L21.6174 22.1378L12.5619 24.5643C12.0815 24.693 11.672 25.0072 11.4234 25.4379C11.1747 25.8685 11.1074 26.3803 11.2361 26.8607C11.3648 27.341 11.679 27.7505 12.1097 27.9992C12.5403 28.2478 13.0521 28.3152 13.5325 28.1865L15.3436 27.7012L24.0787 60.3012C24.3361 61.2619 24.9646 62.0809 25.8259 62.5782C26.6872 63.0755 27.7108 63.2103 28.6715 62.9529L57.6493 55.1883C58.6099 54.9309 59.429 54.3024 59.9263 53.4411C60.4236 52.5797 60.5583 51.5562 60.3009 50.5955L51.5658 17.9955L53.3769 17.5102C53.8572 17.3815 54.2668 17.0673 54.5154 16.6366C54.764 16.2059 54.8314 15.6941 54.7027 15.2138C54.574 14.7335 54.2598 14.3239 53.8291 14.0753C53.3985 13.8267 52.8867 13.7593 52.4063 13.888ZM24.7544 19.3562C24.6257 18.8758 24.693 18.364 24.9417 17.9334C25.1903 17.5027 25.5999 17.1885 26.0802 17.0598L36.9469 14.1481C37.4272 14.0193 37.939 14.0867 38.3697 14.3354C38.8003 14.584 39.1146 14.9935 39.2433 15.4739L39.7285 17.285L25.2397 21.1673L24.7544 19.3562ZM56.6787 51.5661L27.7009 59.3306L18.9658 26.7306L47.9436 18.9661L56.6787 51.5661ZM32.2589 32.8745L36.1412 47.3634C36.2699 47.8437 36.2025 48.3555 35.9539 48.7862C35.7052 49.2168 35.2957 49.5311 34.8153 49.6598C34.335 49.7885 33.8232 49.7211 33.3926 49.4725C32.9619 49.2238 32.6477 48.8143 32.5189 48.3339L28.6367 33.845C28.508 33.3647 28.5753 32.8529 28.824 32.4223C29.0726 31.9916 29.4822 31.6774 29.9625 31.5487C30.4428 31.4199 30.9546 31.4873 31.3853 31.736C31.8159 31.9846 32.1302 32.3941 32.2589 32.8745ZM43.1255 29.9628L47.0078 44.4517C47.1365 44.932 47.0692 45.4438 46.8205 45.8744C46.5719 46.3051 46.1623 46.6193 45.682 46.748C45.2017 46.8768 44.6899 46.8094 44.2592 46.5607C43.8286 46.3121 43.5143 45.9026 43.3856 45.4222L39.5033 30.9333C39.3746 30.453 39.442 29.9412 39.6906 29.5105C39.9393 29.0799 40.3488 28.7656 40.8292 28.6369C41.3095 28.5082 41.8213 28.5756 42.2519 28.8243C42.6826 29.0729 42.9968 29.4824 43.1255 29.9628Z" fill="#F1F1F1" fill-opacity="0.6"/>
</g>
<defs>
<clipPath id="clip0_117_4199">
<rect width="60" height="60" fill="white" transform="translate(0.594604 16.124) rotate(-15)"/>
</clipPath>
</defs>
</svg>
