<svg width="254" height="453" viewBox="0 0 254 453" fill="none" xmlns="http://www.w3.org/2000/svg">
<mask id="mask0_117_4261" style="mask-type:alpha" maskUnits="userSpaceOnUse" x="-174" y="65" width="393" height="352">
<path fill-rule="evenodd" clip-rule="evenodd" d="M176.197 278.302C176.348 280.606 176.42 282.924 176.412 285.257C176.173 358.23 97.6035 417.13 0.921905 416.813C-95.7591 416.496 -173.941 357.084 -173.702 284.11C-173.695 281.778 -173.607 279.459 -173.441 277.157L-173.679 277.156L-172.987 65.8557L218.234 67.1371L217.542 278.438L176.197 278.302Z" fill="white"/>
</mask>
<g mask="url(#mask0_117_4261)">
<mask id="mask1_117_4261" style="mask-type:alpha" maskUnits="userSpaceOnUse" x="-174" y="66" width="351" height="351">
<path d="M176.553 242.329C176.869 145.648 98.7501 67.0157 2.0688 66.699C-94.6125 66.3823 -173.245 144.501 -173.562 241.183C-173.878 337.864 -95.7593 416.496 0.922065 416.813C97.6034 417.13 176.236 339.011 176.553 242.329Z" fill="#7F00FF"/>
</mask>
<g mask="url(#mask1_117_4261)">
<path d="M146.97 271.905C147.309 168.466 63.7296 84.3377 -39.7095 83.9989C-143.149 83.6601 -227.277 167.239 -227.616 270.678C-227.955 374.118 -144.375 458.246 -40.9364 458.585C62.5027 458.924 146.631 375.344 146.97 271.905Z" stroke="white" stroke-opacity="0.6" stroke-width="4.06584"/>
<path d="M-39.8069 113.654C47.2518 113.94 117.599 184.826 117.313 271.989C117.028 359.152 46.2183 429.576 -40.841 429.291C-127.899 429.006 -198.247 358.12 -197.961 270.957C-197.676 183.794 -126.866 113.37 -39.8069 113.654Z" stroke="white" stroke-opacity="0.6" stroke-width="4.06584"/>
<path d="M-39.8904 139.334C33.1916 139.573 92.2378 198.931 91.998 271.908C91.7593 344.884 32.3259 403.854 -40.756 403.615C-113.838 403.376 -172.884 344.018 -172.645 271.041C-172.406 198.064 -112.972 139.094 -39.8904 139.334Z" stroke="white" stroke-opacity="0.6" stroke-width="4.06584"/>
<path d="M72.1074 271.66C72.3102 209.766 22.2993 159.427 -39.5949 159.224C-101.489 159.021 -151.829 209.032 -152.031 270.926C-152.234 332.82 -102.223 383.16 -40.329 383.363C21.5652 383.565 71.9047 333.555 72.1074 271.66Z" stroke="white" stroke-opacity="0.6" stroke-width="4.06584"/>
</g>
</g>
</svg>
